<svg xmlns="http://www.w3.org/2000/svg" xmlns:xlink="http://www.w3.org/1999/xlink" version="1.1" width="1000" height="1000" viewBox="0 0 1000 1000" xml:space="preserve">
<g transform="matrix(2.7141 0 0 2.7141 455.9688 455.9688)" id="398805">
<g style="" vector-effect="non-scaling-stroke">
<g transform="matrix(1 0 0 1 -1.4474 0.56)" id="svg_1">
<path style="stroke: none; stroke-width: 14; stroke-dasharray: none; stroke-linecap: butt; stroke-dashoffset: 0; stroke-linejoin: miter; stroke-miterlimit: 4; is-custom-font: none; font-file-url: none; fill: rgb(255,255,255); fill-rule: evenodd; opacity: 1;" transform=" translate(-166.5527, -168.56)" d="m 264.11 191.3 l 0 0 c -2.79 13.44 -15.19 47.94 -54.74 66.62 l -15.88 -17.86 l -26.8 26.94 a 98.9 98.9 0 0 1 -78.22 -40.12 a 38.53 38.53 0 0 0 8.76 1.65 c 4.39 0.08 9.14 -1.53 9.14 -8.9 l 0 -72.7 a 12 12 0 0 0 -15.05 -12 c -12.41 2.86 -22.32 33.82 -22.32 33.82 a 98.44 98.44 0 0 1 34.07 -75.44 a 99.85 99.85 0 0 1 50.27 -23.19 c -13.55 7.72 -21.16 20.31 -21.16 30.87 c 0 17 10.24 14.94 13.27 12.44 l 0 98.12 a 15.6 15.6 0 0 0 2 3.45 a 14.49 14.49 0 0 0 11.85 6 c 10.25 0 23.55 -11.7 23.55 -11.7 l 0 -79.42 c 0 -8.08 -6.09 -17.84 -12.19 -21.19 c 0 0 11.29 -2 20 4.67 l 0 0 a 74.63 74.63 0 0 1 5.21 -5.73 c 20.33 -19.95 39.48 -25.63 55.43 -28.47 l 0 0 s -29 22.79 -29 53.37 c 0 22.74 0.59 78.2 0.59 78.2 c 10.76 10.39 26.76 -4.62 41.22 -19.43 z" stroke-linecap="round"/>
</g>
<g transform="matrix(1 0 0 1 -0.5 -2.5)" id="svg_4">
<ellipse style="stroke: rgb(255,255,255); stroke-width: 21; stroke-dasharray: none; stroke-linecap: butt; stroke-dashoffset: 0; stroke-linejoin: miter; stroke-miterlimit: 4; is-custom-font: none; font-file-url: none; fill: none; fill-rule: nonzero; opacity: 1;" cx="0" cy="0" rx="149.5" ry="149.5"/>
</g>
<g transform="matrix(1 0 0 1 102.0078 101.6529)" id="path1948">
<path style="stroke: none; stroke-width: 4; stroke-dasharray: none; stroke-linecap: butt; stroke-dashoffset: 0; stroke-linejoin: miter; stroke-miterlimit: 4; is-custom-font: none; font-file-url: none; fill: rgb(255,255,255); fill-rule: nonzero; opacity: 1;" transform=" translate(-270.0077, -269.6528)" d="M 288.741 213.141 C 282.507 213.169 276.551 213.701 271.314 214.628 C 255.881 217.354 253.078 223.062 253.078 233.586 L 253.078 247.486 L 289.549 247.486 L 289.549 252.119 L 253.078 252.119 L 239.391 252.119 C 228.792 252.119 219.51 258.49 216.607 270.609 C 213.258 284.501 213.11 293.17 216.607 307.676 C 219.2 318.473 225.391 326.166 235.99 326.166 L 248.53 326.166 L 248.53 309.504 C 248.53 297.466 258.945 286.847 271.314 286.847 L 307.741 286.847 C 317.882 286.847 325.976 278.498 325.976 268.313 L 325.976 233.586 C 325.976 223.703 317.639 216.277 307.741 214.628 C 301.477 213.585 294.976 213.111 288.741 213.141 Z M 269.017 224.32 C 272.785 224.32 275.862 227.446 275.862 231.291 C 275.862 235.122 272.785 238.219 269.017 238.219 C 265.237 238.219 262.174 235.122 262.174 231.291 C 262.174 227.446 265.237 224.32 269.017 224.32 Z" stroke-linecap="round"/>
</g>
<g transform="matrix(1 0 0 1 141.1606 141.0659)" id="path1950">
<path style="stroke: none; stroke-width: 4; stroke-dasharray: none; stroke-linecap: butt; stroke-dashoffset: 0; stroke-linejoin: miter; stroke-miterlimit: 4; is-custom-font: none; font-file-url: none; fill: rgb(255,255,255); fill-rule: nonzero; opacity: 1;" transform=" translate(-309.1606, -309.0659)" d="M 330.526 252.119 L 330.526 268.313 C 330.526 280.87 319.88 291.438 307.741 291.438 L 271.314 291.438 C 261.335 291.438 253.078 299.978 253.078 309.97 L 253.078 344.7 C 253.078 354.583 261.672 360.397 271.314 363.233 C 282.858 366.626 293.929 367.24 307.741 363.233 C 316.923 360.573 325.976 355.223 325.976 344.7 L 325.976 330.799 L 289.549 330.799 L 289.549 326.166 L 325.976 326.166 L 344.213 326.166 C 354.812 326.166 358.762 318.773 362.448 307.676 C 366.255 296.251 366.094 285.265 362.448 270.609 C 359.829 260.057 354.825 252.119 344.213 252.119 L 330.526 252.119 Z M 310.037 340.065 C 313.818 340.065 316.881 343.164 316.881 346.994 C 316.881 350.838 313.818 353.966 310.037 353.966 C 306.27 353.966 303.193 350.838 303.193 346.994 C 303.193 343.164 306.27 340.065 310.037 340.065 Z" stroke-linecap="round"/>
</g>
</g>
</g>
</svg>