<svg version="1.0" xmlns="http://www.w3.org/2000/svg"
 width="1352.000000pt" height="1352.000000pt" viewBox="0 0 1352.000000 1352.000000">

<g transform="translate(0.000000,1352.000000) scale(0.100000,-0.100000)"
fill="#fff" stroke="none">
<path d="M6330 13499 c-260 -14 -550 -53 -914 -125 -724 -142 -1488 -445
-2144 -851 -466 -288 -944 -667 -1277 -1014 -277 -288 -491 -549 -705 -857
-396 -570 -633 -1042 -862 -1712 -153 -450 -256 -937 -315 -1490 -25 -238 -25
-983 0 -1220 59 -555 162 -1038 315 -1490 123 -361 226 -608 384 -925 189
-377 492 -836 801 -1215 436 -533 920 -963 1532 -1362 686 -448 1495 -780
2271 -932 517 -102 852 -136 1344 -136 492 0 827 34 1344 136 776 152 1585
484 2271 932 762 497 1351 1065 1855 1790 396 570 633 1042 862 1712 152 449
256 939 315 1490 25 237 25 983 0 1220 -48 446 -123 846 -227 1205 -126 435
-273 810 -472 1210 -117 233 -281 504 -478 787 -368 530 -790 985 -1263 1361
-720 573 -1423 949 -2270 1211 -471 146 -1051 250 -1537 276 -202 11 -620 10
-830 -1z m700 -659 c495 -26 891 -87 1304 -200 558 -154 1053 -371 1591 -698
118 -71 464 -315 585 -411 451 -358 853 -790 1186 -1276 153 -223 163 -239
287 -455 121 -212 176 -322 286 -572 111 -255 157 -379 230 -615 162 -523 232
-938 262 -1548 20 -415 -21 -953 -107 -1400 -71 -370 -207 -803 -366 -1170
-186 -426 -356 -733 -613 -1101 -406 -582 -878 -1054 -1460 -1461 -248 -173
-269 -186 -496 -316 -500 -285 -989 -480 -1554 -621 -419 -104 -906 -159
-1400 -159 -461 0 -886 44 -1300 135 -261 56 -637 171 -876 267 -489 195 -858
396 -1329 726 -698 488 -1296 1158 -1742 1950 -123 218 -158 289 -266 537
-228 520 -377 1046 -441 1558 -49 388 -67 763 -52 1070 31 605 101 1013 262
1533 73 236 119 360 230 615 110 250 165 360 286 572 124 216 134 232 287 455
521 760 1154 1335 2005 1825 292 168 704 352 1021 457 462 152 813 228 1259
274 366 37 615 45 921 29z"/>
<path d="M5955 10886 c-1258 -260 -2310 -1059 -2878 -2186 -216 -428 -349
-859 -412 -1338 -17 -133 -38 -449 -33 -512 3 -44 4 -42 51 89 165 458 384
863 587 1085 67 72 174 148 249 177 71 27 208 36 282 19 133 -31 265 -131 327
-248 66 -123 62 -15 62 -1762 0 -1283 -3 -1596 -14 -1641 -34 -149 -136 -232
-298 -245 -81 -7 -250 14 -361 45 -37 10 -67 15 -67 12 0 -26 307 -377 448
-512 457 -437 971 -747 1567 -944 367 -122 666 -179 1065 -205 l175 -12 555
561 c305 309 558 562 561 561 3 0 154 -166 334 -370 l329 -370 160 83 c962
495 1690 1342 2030 2358 34 104 86 296 86 320 0 7 -84 -71 -187 -172 -297
-291 -464 -433 -664 -565 -330 -218 -599 -252 -800 -102 l-56 41 -6 336 c-4
185 -10 953 -13 1706 -5 1026 -4 1394 5 1465 38 305 150 634 316 930 84 151
223 355 339 500 106 131 354 392 469 491 37 33 61 59 52 59 -8 0 -70 -12 -137
-26 -726 -151 -1272 -408 -1827 -860 -141 -116 -429 -391 -507 -486 l-39 -47
-69 44 c-129 83 -305 138 -488 153 -117 9 -268 5 -268 -7 0 -4 22 -22 49 -39
63 -41 186 -172 245 -260 105 -159 176 -337 196 -493 6 -55 10 -644 10 -1741
l0 -1658 -82 -65 c-177 -140 -403 -277 -568 -345 -283 -117 -527 -95 -723 64
-57 47 -128 137 -166 213 l-21 42 0 2041 0 2040 -52 -27 c-76 -38 -193 -44
-264 -14 -142 61 -220 230 -231 501 -11 268 62 502 239 767 124 186 361 410
572 540 38 23 61 43 51 42 -11 0 -92 -15 -180 -33z"/>
</g>
</svg>
